<?xml version="1.0" encoding="UTF-8" standalone="no"?>
<!DOCTYPE svg PUBLIC "-//W3C//DTD SVG 1.1//EN" "http://www.w3.org/Graphics/SVG/1.1/DTD/svg11.dtd">
<svg width="100%" height="100%" viewBox="0 0 706 193" version="1.1" xmlns="http://www.w3.org/2000/svg" xmlns:xlink="http://www.w3.org/1999/xlink" xml:space="preserve" xmlns:serif="http://www.serif.com/" style="fill-rule:evenodd;clip-rule:evenodd;stroke-linejoin:round;stroke-miterlimit:2;">
    <g id="Slash-logo" serif:id="Slash logo" transform="matrix(1,0,0,1,-69.855,-1391.83)">
        <g id="Right-dmg" serif:id="Right dmg" transform="matrix(1,0,0,1,-123.454,534.532)">
            <path d="M731.911,892.642C737.414,892.642 742.213,893.481 746.306,895.159C753.286,898.045 758.923,903.346 763.218,911.064L763.218,895.26L791.103,895.26L791.103,999.348C791.103,1013.51 788.72,1024.18 783.955,1031.36C775.768,1043.71 760.064,1049.88 736.844,1049.88C722.818,1049.88 711.375,1047.13 702.517,1041.63C693.658,1036.12 688.759,1027.9 687.819,1016.97L719.026,1016.97C719.831,1020.32 721.14,1022.74 722.952,1024.21C726.039,1026.83 731.24,1028.14 738.555,1028.14C748.89,1028.14 755.802,1024.68 759.292,1017.77C761.574,1013.34 762.715,1005.89 762.715,995.422L762.715,988.376C759.963,993.073 757.01,996.597 753.856,998.945C748.152,1003.31 740.736,1005.49 731.609,1005.49C717.516,1005.49 706.258,1000.54 697.836,990.64C689.413,980.742 685.202,967.336 685.202,950.424C685.202,934.117 689.262,920.409 697.383,909.302C705.503,898.196 717.013,892.642 731.911,892.642ZM846.735,892.34C855.862,892.34 864.083,894.052 871.398,897.474C878.713,900.897 884.753,906.299 889.518,913.681C893.813,920.191 896.598,927.741 897.873,936.331C898.611,941.365 898.913,948.612 898.779,958.075L823.682,958.075C824.085,969.081 827.541,976.799 834.051,981.228C838.01,983.98 842.775,985.356 848.345,985.356C854.251,985.356 859.049,983.678 862.741,980.322C864.754,978.51 866.532,975.994 868.076,972.772L897.37,972.772C896.631,979.282 893.242,985.892 887.202,992.603C877.807,1003.27 864.653,1008.61 847.741,1008.61C833.782,1008.61 821.468,1004.11 810.797,995.12C800.126,986.127 794.791,971.497 794.791,951.23C794.791,932.237 799.606,917.675 809.237,907.541C818.867,897.407 831.366,892.34 846.735,892.34ZM411.802,975.989L411.802,977.101C411.802,980.591 411.869,984.819 412.003,989.785C412.204,993.543 412.775,996.093 413.714,997.435C414.654,998.778 416.063,999.885 417.942,1000.76L417.942,1004.99L386.736,1004.99C385.863,1002.77 385.259,1000.69 384.924,998.744C384.588,996.798 384.32,994.583 384.119,992.1C380.159,996.395 375.596,1000.05 370.428,1003.07C364.254,1006.63 357.274,1008.41 349.49,1008.41C341.596,1008.41 334.794,1006.62 329.084,1003.04L411.802,975.989ZM657.064,895.795C660.499,896.857 663.784,898.189 666.917,899.79C676.246,904.554 680.91,913.547 680.91,926.768L680.91,977.101C680.91,980.591 680.977,984.819 681.111,989.785C681.312,993.543 681.883,996.093 682.822,997.435C683.762,998.778 685.171,999.885 687.05,1000.76L687.05,1004.99L655.844,1004.99C654.972,1002.77 654.368,1000.69 654.032,998.744C653.696,996.798 653.428,994.583 653.227,992.1C649.267,996.395 644.704,1000.05 639.536,1003.07C633.362,1006.63 626.382,1008.41 618.598,1008.41C608.665,1008.41 600.461,1005.57 593.985,999.902C587.509,994.231 584.271,986.194 584.271,975.792C584.271,962.303 589.472,952.538 599.874,946.498C605.578,943.21 613.967,940.861 625.04,939.452L634.805,938.244C640.107,937.573 643.898,936.734 646.18,935.727C650.274,933.982 652.321,931.264 652.321,927.573C652.321,923.077 650.76,919.973 647.64,918.262C644.519,916.55 639.939,915.695 633.899,915.695C627.121,915.695 622.322,917.373 619.504,920.728C617.49,923.211 616.148,926.567 615.477,930.795L587.794,930.795C588.097,925.976 588.925,921.589 590.278,917.633L657.064,895.795ZM579.037,921.308C579.53,924.891 579.777,929.731 579.777,935.828L579.575,1004.99L550.181,1004.99L550.181,935.123C550.181,933.593 550.09,932.162 549.908,930.832L579.037,921.308ZM515.351,942.132L515.351,1004.99L486.46,1004.99L486.46,951.578L515.351,942.132ZM451.428,963.033L451.428,1004.99L422.335,1004.99L422.335,972.545L451.428,963.033ZM652.22,951.632C650.408,952.773 648.579,953.696 646.734,954.401C644.888,955.105 642.355,955.76 639.133,956.364L632.691,957.572C626.651,958.646 622.322,959.954 619.705,961.498C615.276,964.115 613.061,968.175 613.061,973.678C613.061,978.577 614.42,982.117 617.138,984.299C619.856,986.48 623.161,987.57 627.054,987.57C633.228,987.57 638.915,985.758 644.116,982.134C649.317,978.51 652.019,971.9 652.22,962.303L652.22,951.632ZM739.058,981.43C745.769,981.43 751.44,978.896 756.071,973.829C760.702,968.762 763.017,960.692 763.017,949.619C763.017,939.217 760.819,931.298 756.423,925.862C752.028,920.426 746.139,917.708 738.756,917.708C728.69,917.708 721.744,922.439 717.919,931.902C715.905,936.935 714.899,943.143 714.899,950.525C714.899,956.901 715.972,962.571 718.12,967.538C722.012,976.799 728.992,981.43 739.058,981.43ZM846.735,915.997C840.091,915.997 834.94,918.077 831.282,922.238C827.625,926.399 825.326,932.036 824.387,939.15L868.982,939.15C868.512,931.566 866.213,925.812 862.086,921.886C857.959,917.96 852.842,915.997 846.735,915.997Z" style="fill-rule:nonzero;"/>
        </g>
        <g id="Left-dmg" serif:id="Left dmg" transform="matrix(1,0,0,1,-134.209,535.029)">
            <path d="M251.578,892.642C258.222,892.642 264.128,894.102 269.295,897.021C274.463,899.941 278.657,903.984 281.878,909.151L281.878,856.805L310.971,856.805L310.971,1004.99L283.086,1004.99L283.086,989.785C278.993,996.295 274.328,1001.03 269.094,1003.98C263.859,1006.93 257.349,1008.41 249.565,1008.41C236.746,1008.41 225.958,1003.22 217.2,992.855C208.443,982.487 204.064,969.182 204.064,952.941C204.064,934.217 208.375,919.486 216.999,908.749C225.623,898.011 237.149,892.642 251.578,892.642ZM329.084,1003.04C327.609,1002.11 326.206,1001.07 324.877,999.902C318.401,994.231 315.162,986.194 315.162,975.792C315.162,962.303 320.364,952.538 330.766,946.498C336.47,943.21 344.859,940.861 355.932,939.452L365.697,938.244C370.998,937.573 374.79,936.734 377.072,935.727C381.166,933.982 383.213,931.264 383.213,927.573C383.213,923.077 381.652,919.973 378.532,918.262C375.411,916.55 370.831,915.695 364.791,915.695C358.013,915.695 353.214,917.373 350.396,920.728C348.382,923.211 347.04,926.567 346.369,930.795L318.686,930.795C319.29,921.198 321.974,913.312 326.739,907.138C334.323,897.474 347.342,892.642 365.797,892.642C377.81,892.642 388.481,895.025 397.809,899.79C407.138,904.554 411.802,913.547 411.802,926.768L411.802,975.989L329.084,1003.04ZM383.112,951.632C381.3,952.773 379.471,953.696 377.626,954.401C375.78,955.105 373.247,955.76 370.025,956.364L363.583,957.572C357.543,958.646 353.214,959.954 350.597,961.498C346.168,964.115 343.953,968.175 343.953,973.678C343.953,978.577 345.312,982.117 348.03,984.299C350.748,986.48 354.053,987.57 357.945,987.57C364.12,987.57 369.807,985.758 375.008,982.134C380.209,978.51 382.911,971.9 383.112,962.303L383.112,951.632ZM257.819,984.248C265.94,984.248 272.114,981.228 276.342,975.188C280.57,969.148 282.684,961.33 282.684,951.733C282.684,938.311 279.295,928.714 272.516,922.943C268.356,919.453 263.524,917.708 258.02,917.708C249.632,917.708 243.474,920.879 239.548,927.221C235.622,933.563 233.659,941.432 233.659,950.827C233.659,960.961 235.656,969.064 239.649,975.138C243.642,981.211 249.699,984.248 257.819,984.248ZM422.335,972.545L422.335,895.461L450.22,895.461L450.22,911.467C453.777,905.762 457.132,901.702 460.286,899.286C465.857,894.991 473.071,892.844 481.93,892.844C490.318,892.844 497.097,894.689 502.264,898.38C506.425,901.803 509.579,906.199 511.727,911.567C515.485,905.125 520.149,900.394 525.719,897.374C531.625,894.354 538.202,892.844 545.45,892.844C550.282,892.844 555.047,893.783 559.744,895.662C564.442,897.541 568.704,900.83 572.529,905.527C575.616,909.353 577.696,914.051 578.77,919.621C578.866,920.148 578.955,920.711 579.037,921.308L549.908,930.832C549.597,928.545 549.016,926.552 548.168,924.855C545.618,919.755 540.92,917.205 534.074,917.205C526.155,917.205 520.686,920.493 517.666,927.07C516.122,930.56 515.351,934.754 515.351,939.653L515.351,942.132L486.46,951.578L486.46,939.653C486.46,933.143 485.788,928.412 484.446,925.459C482.03,920.158 477.299,917.507 470.252,917.507C462.065,917.507 456.562,920.158 453.743,925.459C452.2,928.479 451.428,932.976 451.428,938.949L451.428,963.033L422.335,972.545ZM590.278,917.633C591.618,913.711 593.475,910.212 595.847,907.138C603.431,897.474 616.45,892.642 634.905,892.642C642.883,892.642 650.269,893.693 657.064,895.795L590.278,917.633Z" style="fill-rule:nonzero;"/>
        </g>
    </g>
</svg>
